<svg xmlns="http://www.w3.org/2000/svg" width="1600" height="820"><defs><linearGradient id="h" x1="0" x2="1" y1="0" y2="1"><stop offset="0%" stop-color="#c24d4d"/><stop offset="100%" stop-color="#a02626"/></linearGradient><linearGradient id="i" x1="0" x2="1" y1="0" y2="1"><stop offset="0%" stop-color="#10a093"/><stop offset="100%" stop-color="#0a6e63"/></linearGradient><linearGradient id="e" x1="0" x2="0" y1="0" y2="1"><stop offset="0%" stop-color="#a855f7"/><stop offset="100%" stop-color="#a855f7" stop-opacity="0"/></linearGradient><linearGradient id="f" x1="0" x2="0" y1="0" y2="1"><stop offset="0%" stop-color="#1b1a22"/><stop offset="100%" stop-color="#101019"/></linearGradient><radialGradient id="a" cx="50%" cy="50%" r="50%"><stop offset="0%" stop-color="#c24d4d" stop-opacity=".55"/><stop offset="100%" stop-color="#c24d4d" stop-opacity="0"/></radialGradient><radialGradient id="c" cx="50%" cy="50%" r="50%"><stop offset="0%" stop-color="#10a093" stop-opacity=".5"/><stop offset="100%" stop-color="#10a093" stop-opacity="0"/></radialGradient><radialGradient id="d" cx="50%" cy="50%" r="50%"><stop offset="0%" stop-color="#a855f7" stop-opacity=".4"/><stop offset="100%" stop-color="#a855f7" stop-opacity="0"/></radialGradient><filter id="g" width="180%" height="180%" x="-40%" y="-40%"><feDropShadow dx="0" dy="40" flood-color="#000" flood-opacity=".6" stdDeviation="45"/></filter><filter id="b"><feGaussianBlur stdDeviation="60"/></filter></defs><path fill="#070608" d="M0 0h1600v820H0z"/><ellipse cx="300" cy="80" fill="url(#a)" filter="url(#b)" rx="520" ry="360"/><ellipse cx="1320" cy="300" fill="url(#c)" filter="url(#b)" rx="520" ry="420"/><ellipse cx="800" cy="760" fill="url(#d)" filter="url(#b)" rx="520" ry="320"/><path fill="url(#e)" d="M798 40h4v180h-4z"/><path fill="none" stroke="#c24d4d" stroke-width="3" d="M800 215c0 85-200 85-200 165" opacity=".6"/><path fill="none" stroke="#10a093" stroke-width="3" d="M800 215c0 85 200 85 200 165" opacity=".6"/><circle cx="800" cy="210" r="7" fill="#a855f7"/><g transform="rotate(-5 560 470)"><rect width="300" height="600" x="410" y="190" fill="url(#f)" stroke="rgba(255,255,255,0.10)" stroke-width="1.5" filter="url(#g)" rx="44"/><rect width="272" height="572" x="424" y="204" fill="#15141b" rx="32"/><path fill="url(#h)" d="M424 236a32 32 0 0 1 32-32h208a32 32 0 0 1 32 32v70H424z"/><circle cx="668" cy="270" r="9" fill="#e6b93d"/><rect width="224" height="92" x="448" y="332" fill="rgba(194,77,77,0.16)" stroke="rgba(194,77,77,0.35)" rx="16"/><rect width="70" height="9" x="468" y="352" fill="rgba(255,255,255,0.30)" rx="4"/><rect width="130" height="20" x="468" y="372" fill="rgba(255,255,255,0.75)" rx="6"/><g fill="rgba(255,255,255,0.08)" stroke="rgba(255,255,255,0.10)"><rect width="48" height="48" x="448" y="448" rx="12"/><rect width="48" height="48" x="507" y="448" rx="12"/><rect width="48" height="48" x="566" y="448" rx="12"/><rect width="48" height="48" x="625" y="448" rx="12"/></g><g fill="rgba(255,255,255,0.05)"><rect width="224" height="44" x="448" y="524" rx="10"/><rect width="224" height="44" x="448" y="580" rx="10"/><rect width="224" height="44" x="448" y="636" rx="10"/></g><g fill="rgba(255,255,255,0.18)"><rect width="120" height="12" x="464" y="540" rx="4"/><rect width="96" height="12" x="464" y="596" rx="4"/><rect width="140" height="12" x="464" y="652" rx="4"/></g></g><g transform="rotate(5 1040 470)"><rect width="300" height="600" x="890" y="190" fill="url(#f)" stroke="rgba(255,255,255,0.10)" stroke-width="1.5" filter="url(#g)" rx="44"/><rect width="272" height="572" x="904" y="204" fill="#15141b" rx="32"/><path fill="url(#i)" d="M904 236a32 32 0 0 1 32-32h208a32 32 0 0 1 32 32v70H904z"/><path fill="#e6b93d" d="M1150 262a13 13 0 1 0 0 22 10 10 0 1 1 0-22"/><rect width="224" height="92" x="928" y="332" fill="rgba(16,160,147,0.16)" stroke="rgba(16,160,147,0.35)" rx="16"/><rect width="70" height="9" x="948" y="352" fill="rgba(255,255,255,0.30)" rx="4"/><rect width="130" height="20" x="948" y="372" fill="rgba(255,255,255,0.75)" rx="6"/><g fill="rgba(255,255,255,0.08)" stroke="rgba(255,255,255,0.10)"><rect width="48" height="48" x="928" y="448" rx="12"/><rect width="48" height="48" x="987" y="448" rx="12"/><rect width="48" height="48" x="1046" y="448" rx="12"/><rect width="48" height="48" x="1105" y="448" rx="12"/></g><g fill="rgba(255,255,255,0.05)"><rect width="224" height="44" x="928" y="524" rx="10"/><rect width="224" height="44" x="928" y="580" rx="10"/><rect width="224" height="44" x="928" y="636" rx="10"/></g><g fill="rgba(255,255,255,0.18)"><rect width="120" height="12" x="944" y="540" rx="4"/><rect width="150" height="12" x="944" y="596" rx="4"/><rect width="96" height="12" x="944" y="652" rx="4"/></g></g><g font-family="Arial, sans-serif" font-size="15" font-weight="600"><g transform="rotate(-5 540 740)"><rect width="148" height="34" x="466" y="724" fill="rgba(255,255,255,0.04)" stroke="rgba(194,77,77,0.5)" rx="17"/><circle cx="488" cy="741" r="5" fill="#c24d4d"/><text x="502" y="746" fill="#f0a9a9">Conventional</text></g><g transform="rotate(5 1060 740)"><rect width="112" height="34" x="988" y="724" fill="rgba(255,255,255,0.04)" stroke="rgba(16,160,147,0.5)" rx="17"/><circle cx="1010" cy="741" r="5" fill="#10a093"/><text x="1024" y="746" fill="#7fded2">Islamic</text></g></g></svg>