<svg xmlns="http://www.w3.org/2000/svg" xmlns:xlink="http://www.w3.org/1999/xlink" viewBox="0 0 202.178 37.88" overflow="visible"><g><path d="M 63.553 20.32 L 53.716 20.32 L 53.716 28.408 L 50.658 28.408 L 50.658 9.47 L 64.176 9.47 L 64.176 12.363 L 53.716 12.363 L 53.716 17.423 L 63.553 17.423 Z M 83.289 20.943 C 83.289 26.204 79.732 28.745 75.25 28.745 C 70.768 28.745 67.213 26.204 67.213 20.943 L 67.213 9.47 L 70.273 9.47 L 70.273 20.71 C 70.273 24.324 72.315 25.811 75.25 25.811 C 78.185 25.811 80.231 24.324 80.231 20.71 L 80.231 9.47 L 83.289 9.47 Z M 100.132 28.408 L 86.589 28.408 L 86.589 9.47 L 89.644 9.47 L 89.644 25.515 L 100.132 25.515 Z M 105.752 20.329 L 105.752 25.576 L 110.339 25.576 C 112.748 25.576 114.357 25.12 114.357 22.923 C 114.357 20.788 112.76 20.325 110.339 20.325 Z M 105.752 12.376 L 105.752 17.48 L 109.948 17.48 C 112.071 17.48 113.926 17.151 113.926 14.891 C 113.926 12.714 112.046 12.381 109.919 12.381 Z M 110.042 9.511 C 114.088 9.511 117.132 10.905 117.132 14.665 C 117.132 16.613 115.875 18.235 114.209 18.698 C 116.009 19.221 117.565 20.859 117.565 23.033 C 117.565 26.808 114.791 28.446 110.473 28.446 L 102.697 28.446 L 102.697 9.511 Z M 124.302 12.338 L 124.302 17.667 L 128.954 17.667 C 131.419 17.667 132.569 16.775 132.569 14.95 C 132.569 13.125 131.35 12.338 128.954 12.338 Z M 129.039 9.47 C 133.395 9.47 135.748 11.421 135.748 14.945 C 135.748 18.164 133.285 20.302 129.429 20.437 L 135.668 28.403 L 131.88 28.403 L 125.844 20.441 L 124.302 20.441 L 124.302 28.408 L 121.244 28.408 L 121.244 9.472 Z M 139.449 9.47 L 142.507 9.47 L 142.507 28.408 L 139.449 28.408 Z M 163.416 12.176 L 161.17 14.354 C 159.905 12.864 158.037 12.019 156.082 12.052 C 152.202 12.052 149.373 14.852 149.373 18.938 C 149.373 23.024 152.214 25.827 155.947 25.827 C 159.399 25.827 161.423 24.039 161.916 20.911 L 156.896 20.911 L 156.896 18.071 L 165.232 18.071 C 165.246 18.315 165.259 18.559 165.259 18.803 C 165.259 24.24 161.809 28.745 155.949 28.745 C 151.066 28.745 146.169 25.257 146.169 18.935 C 146.169 13.232 150.333 9.125 156.084 9.125 C 159.103 9.125 161.7 10.266 163.42 12.183 M 171.126 17.423 L 181.353 17.423 L 181.353 9.47 L 184.414 9.47 L 184.414 28.408 L 181.353 28.408 L 181.353 20.32 L 171.126 20.32 L 171.126 28.408 L 168.071 28.408 L 168.071 9.47 L 171.126 9.47 Z M 186.86 9.47 L 186.86 12.363 L 192.989 12.363 L 192.989 28.408 L 196.049 28.408 L 196.049 12.363 L 202.178 12.363 L 202.178 9.47 Z" fill="rgb(255, 255, 255)"></path><path d="M 1.819 10.572 C 0.851 12.536 0.237 14.655 0.002 16.832 C -0.011 16.983 0.039 17.132 0.141 17.243 C 0.243 17.355 0.387 17.418 0.538 17.418 L 8.854 17.418 C 9.158 17.416 9.407 17.175 9.42 16.871 C 9.5 14.785 9.714 12.707 10.061 10.649 C 10.086 10.526 10.053 10.399 9.973 10.302 C 9.893 10.205 9.773 10.15 9.648 10.152 L 2.489 10.152 C 2.203 10.151 1.941 10.314 1.816 10.572" fill="rgb(255, 255, 255)"></path><path d="M 18.949 0 C 17.204 0 15.348 2.555 14.052 6.698 C 14.013 6.828 14.037 6.969 14.116 7.078 C 14.196 7.188 14.323 7.254 14.458 7.257 L 33.279 7.257 C 33.397 7.256 33.505 7.189 33.556 7.082 C 33.607 6.976 33.592 6.85 33.519 6.757 C 29.897 2.467 24.565 -0.007 18.949 0" fill="rgb(255, 255, 255)"></path><path d="M 35.402 10.152 L 13.669 10.152 C 13.4 10.149 13.168 10.343 13.122 10.608 C 12.747 12.667 12.518 14.749 12.437 16.839 C 12.429 16.992 12.484 17.141 12.589 17.253 C 12.694 17.364 12.841 17.427 12.994 17.427 L 37.376 17.427 C 37.529 17.428 37.675 17.363 37.777 17.249 C 37.879 17.136 37.928 16.984 37.912 16.832 C 37.675 14.657 37.057 12.54 36.087 10.579 C 35.956 10.321 35.691 10.159 35.402 10.159" fill="rgb(255, 255, 255)"></path><path d="M 8.924 20.421 L 0.385 20.421 C 0.277 20.42 0.175 20.464 0.102 20.543 C 0.029 20.621 -0.008 20.727 0.001 20.834 C 0.758 28.224 5.762 34.492 12.803 36.867 C 12.9 36.897 13.006 36.866 13.071 36.789 C 13.137 36.711 13.15 36.602 13.104 36.511 C 10.918 32.69 9.667 26.825 9.439 20.923 C 9.426 20.647 9.2 20.43 8.924 20.428 M 18.941 37.88 C 28.644 37.907 36.809 30.621 37.881 20.98 C 37.898 20.835 37.851 20.689 37.753 20.581 C 37.654 20.474 37.513 20.414 37.367 20.419 L 12.919 20.419 C 12.779 20.418 12.646 20.475 12.549 20.576 C 12.452 20.677 12.4 20.813 12.406 20.952 C 12.8 30.762 16.034 37.878 18.95 37.88" fill="rgb(255, 255, 255)"></path><path d="M 10.944 6.837 C 11.441 4.943 12.172 3.118 13.118 1.403 C 13.169 1.311 13.159 1.198 13.091 1.117 C 13.024 1.037 12.914 1.006 12.815 1.04 C 9.545 2.153 6.639 4.133 4.406 6.769 C 4.33 6.863 4.314 6.993 4.366 7.103 C 4.418 7.212 4.529 7.282 4.65 7.282 L 10.355 7.282 C 10.628 7.277 10.865 7.091 10.932 6.826" fill="rgb(255, 255, 255)"></path></g></svg>