<svg xmlns="http://www.w3.org/2000/svg" xmlns:xlink="http://www.w3.org/1999/xlink" viewBox="0 0 114.97 32.026" overflow="visible"><g><path d="M 34.403 31.433 L 29.877 31.433 L 29.877 28.486 L 29.794 28.486 C 29.15 29.749 28.215 30.656 26.988 31.203 C 25.761 31.75 24.433 32.03 23.091 32.026 C 21.387 32.026 19.899 31.724 18.63 31.119 C 17.357 30.517 16.305 29.694 15.467 28.655 C 14.63 27.616 14.001 26.389 13.583 24.97 C 13.164 23.552 12.955 22.031 12.955 20.402 C 12.955 18.437 13.219 16.741 13.75 15.306 C 14.282 13.875 14.987 12.697 15.866 11.771 C 16.746 10.845 17.75 10.165 18.881 9.728 C 20.012 9.294 21.165 9.074 22.337 9.074 C 23.007 9.074 23.69 9.135 24.389 9.265 C 25.088 9.391 25.758 9.595 26.399 9.873 C 27.037 10.152 27.636 10.513 28.18 10.949 C 28.719 11.379 29.179 11.899 29.542 12.486 L 29.626 12.486 L 29.626 1.371 L 34.403 1.371 L 34.403 31.436 Z M 17.731 20.778 C 17.731 21.704 17.85 22.617 18.086 23.514 C 18.324 24.414 18.685 25.214 19.174 25.913 C 19.659 26.611 20.297 27.187 21.039 27.597 C 21.793 28.017 22.685 28.228 23.719 28.228 C 24.753 28.228 25.694 28.005 26.463 27.555 C 27.218 27.119 27.863 26.514 28.347 25.787 C 28.837 25.058 29.198 24.236 29.436 23.323 C 29.675 22.41 29.794 21.477 29.794 20.523 C 29.794 18.107 29.256 16.226 28.18 14.879 C 27.104 13.532 25.645 12.859 23.803 12.859 C 22.685 12.859 21.741 13.092 20.975 13.552 C 20.218 14.003 19.574 14.622 19.09 15.362 C 18.601 16.107 18.253 16.948 18.044 17.887 C 17.833 18.834 17.727 19.801 17.728 20.772 Z M 41.477 21.335 C 41.477 22.177 41.596 22.993 41.832 23.776 C 42.067 24.56 42.424 25.249 42.901 25.839 C 43.375 26.428 43.977 26.897 44.701 27.25 C 45.426 27.603 46.292 27.778 47.297 27.778 C 48.695 27.778 49.816 27.477 50.67 26.872 C 51.52 26.269 52.158 25.363 52.576 24.155 L 57.102 24.155 C 56.85 25.334 56.416 26.386 55.804 27.312 C 55.189 28.238 54.448 29.018 53.585 29.649 C 52.702 30.29 51.717 30.774 50.673 31.08 C 49.597 31.404 48.473 31.566 47.3 31.566 C 45.597 31.566 44.09 31.285 42.775 30.725 C 41.464 30.164 40.353 29.377 39.445 28.368 C 38.536 27.357 37.854 26.149 37.393 24.748 C 36.933 23.343 36.704 21.802 36.704 20.115 C 36.704 18.571 36.949 17.104 37.438 15.715 C 37.928 14.326 38.624 13.102 39.532 12.05 C 40.44 10.997 41.535 10.162 42.82 9.544 C 44.105 8.926 45.558 8.618 47.178 8.618 C 48.882 8.618 50.409 8.974 51.765 9.693 C 53.121 10.408 54.242 11.357 55.137 12.535 C 56.032 13.714 56.68 15.071 57.086 16.599 C 57.491 18.13 57.595 19.707 57.401 21.335 L 41.477 21.335 Z M 52.618 18.179 C 52.564 17.429 52.401 16.692 52.135 15.99 C 51.871 15.287 51.507 14.679 51.046 14.158 C 50.586 13.639 50.025 13.219 49.372 12.895 C 48.715 12.575 47.984 12.412 47.172 12.412 C 46.36 12.412 45.571 12.561 44.888 12.856 C 44.202 13.151 43.616 13.558 43.13 14.076 C 42.64 14.595 42.25 15.206 41.957 15.909 C 41.664 16.612 41.503 17.369 41.477 18.182 L 52.618 18.182 Z M 78.66 26.587 C 78.66 27.176 78.738 27.597 78.892 27.85 C 79.044 28.102 79.346 28.229 79.794 28.229 L 80.297 28.229 C 80.493 28.229 80.715 28.203 80.967 28.144 L 80.967 31.469 C 80.799 31.524 80.583 31.589 80.316 31.66 C 80.045 31.73 79.772 31.793 79.498 31.848 C 79.218 31.903 78.938 31.945 78.66 31.974 C 78.38 32.004 78.145 32.016 77.949 32.016 C 76.97 32.016 76.161 31.819 75.52 31.427 C 74.876 31.035 74.457 30.346 74.264 29.365 C 73.314 30.291 72.148 30.964 70.766 31.385 C 69.385 31.806 68.051 32.016 66.766 32.016 C 65.786 32.016 64.853 31.884 63.96 31.615 C 63.065 31.35 62.279 30.955 61.593 30.437 C 60.907 29.919 60.363 29.258 59.96 28.459 C 59.554 27.659 59.351 26.726 59.351 25.658 C 59.351 24.311 59.596 23.216 60.085 22.375 C 60.575 21.533 61.216 20.873 62.012 20.397 C 62.807 19.921 63.703 19.574 64.691 19.364 C 65.681 19.153 66.681 18.992 67.687 18.881 C 68.504 18.72 69.328 18.6 70.157 18.522 C 70.94 18.454 71.629 18.335 72.232 18.166 C 72.831 17.998 73.307 17.739 73.655 17.389 C 74.003 17.039 74.18 16.512 74.18 15.809 C 74.18 15.19 74.032 14.686 73.739 14.294 C 73.454 13.908 73.08 13.597 72.65 13.387 C 72.219 13.177 71.735 13.038 71.204 12.966 C 70.704 12.9 70.201 12.865 69.697 12.863 C 68.357 12.863 67.252 13.144 66.389 13.705 C 65.522 14.265 65.033 15.136 64.923 16.314 L 60.147 16.314 C 60.23 14.909 60.565 13.747 61.152 12.817 C 61.738 11.891 62.485 11.147 63.394 10.587 C 64.302 10.027 65.326 9.632 66.473 9.408 C 67.632 9.183 68.81 9.07 69.99 9.072 C 71.05 9.072 72.1 9.185 73.13 9.408 C 74.164 9.632 75.092 9.998 75.916 10.502 C 76.738 11.008 77.405 11.662 77.907 12.461 C 78.409 13.261 78.66 14.235 78.66 15.388 Z M 73.884 20.523 C 73.156 21.002 72.264 21.287 71.204 21.387 C 70.141 21.484 69.081 21.634 68.019 21.831 C 67.522 21.914 67.032 22.034 66.553 22.19 C 66.076 22.346 65.658 22.556 65.297 22.821 C 64.928 23.096 64.633 23.457 64.437 23.874 C 64.228 24.311 64.121 24.836 64.121 25.454 C 64.121 25.988 64.276 26.438 64.582 26.801 C 64.888 27.167 65.258 27.455 65.693 27.665 C 66.128 27.875 66.601 28.021 67.117 28.108 C 67.632 28.193 68.102 28.235 68.521 28.235 C 69.053 28.235 69.623 28.167 70.238 28.025 C 70.853 27.885 71.441 27.643 71.977 27.309 C 72.514 26.979 72.978 26.542 73.34 26.024 C 73.704 25.506 73.884 24.864 73.884 24.107 Z M 80.45 9.663 L 84.05 9.663 L 84.05 3.136 L 88.827 3.136 L 88.827 9.663 L 93.143 9.663 L 93.143 13.243 L 88.827 13.243 L 88.827 24.864 C 88.827 25.369 88.846 25.805 88.888 26.168 C 88.93 26.534 89.027 26.842 89.181 27.094 C 89.333 27.347 89.565 27.538 89.874 27.664 C 90.18 27.79 90.599 27.851 91.13 27.851 C 91.465 27.851 91.8 27.845 92.135 27.832 C 92.474 27.818 92.811 27.768 93.14 27.683 L 93.14 31.387 C 92.608 31.442 92.093 31.501 91.59 31.556 C 91.088 31.611 90.57 31.64 90.041 31.64 C 88.785 31.64 87.774 31.52 87.004 31.283 C 86.234 31.044 85.635 30.694 85.204 30.232 C 84.769 29.768 84.475 29.186 84.324 28.483 C 84.17 27.781 84.08 26.981 84.05 26.084 L 84.05 13.24 L 80.45 13.24 L 80.45 9.659 L 80.45 9.662 Z M 98.955 21.789 C 98.955 22.631 99.074 23.446 99.31 24.23 C 99.545 25.017 99.902 25.703 100.379 26.293 C 100.852 26.882 101.455 27.351 102.179 27.704 C 102.904 28.057 103.77 28.232 104.779 28.232 C 106.173 28.232 107.297 27.931 108.151 27.325 C 109.001 26.723 109.639 25.817 110.057 24.609 L 114.583 24.609 C 114.332 25.787 113.897 26.84 113.285 27.765 C 112.67 28.692 111.929 29.472 111.065 30.103 C 110.183 30.743 109.199 31.227 108.154 31.534 C 107.078 31.858 105.954 32.02 104.782 32.02 C 103.078 32.02 101.57 31.738 100.256 31.178 C 98.942 30.618 97.834 29.831 96.926 28.821 C 96.018 27.811 95.335 26.603 94.874 25.201 C 94.414 23.796 94.182 22.255 94.182 20.568 C 94.182 19.024 94.426 17.557 94.916 16.168 C 95.405 14.779 96.101 13.556 97.01 12.503 C 97.918 11.451 99.013 10.616 100.298 9.997 C 101.583 9.379 103.033 9.072 104.653 9.072 C 106.357 9.072 107.886 9.428 109.24 10.146 C 110.592 10.862 111.716 11.81 112.612 12.989 C 113.504 14.167 114.155 15.524 114.56 17.052 C 114.966 18.584 115.069 20.16 114.876 21.789 Z M 110.096 18.632 C 110.042 17.883 109.879 17.145 109.613 16.443 C 109.345 15.741 108.985 15.132 108.525 14.611 C 108.064 14.093 107.503 13.672 106.85 13.349 C 106.192 13.028 105.461 12.866 104.65 12.866 C 103.838 12.866 103.052 13.015 102.366 13.309 C 101.68 13.604 101.094 14.012 100.607 14.53 C 100.118 15.048 99.728 15.66 99.435 16.363 C 99.142 17.065 98.981 17.823 98.955 18.635 L 110.096 18.635 Z" fill="rgb(255,255,255)"></path><path d="M 0 0 L 10.471 1.289 L 10.471 14.317 Z" fill="rgb(255,203,58)"></path><path d="M 5.227 31.462 L 10.461 31.462 L 10.461 16.53 L 5.227 9.371 Z" fill="rgb(255,255,255)"></path></g></svg>