<svg xmlns="http://www.w3.org/2000/svg" xmlns:xlink="http://www.w3.org/1999/xlink" viewBox="0 0 158.769 48" overflow="visible"><g><path d="M 0 0 L 158.769 0 L 158.769 48 L 0 48 Z" fill="transparent"></path><path d="M 25.265 0.098 C 25.258 0.094 25.251 0.092 25.243 0.093 C 25.235 0.094 25.228 0.098 25.223 0.103 L 16.916 8.39 C 16.882 8.424 16.835 8.444 16.786 8.443 L 0.052 8.443 C 0.012 8.443 0.007 8.429 0.035 8.403 C 2.765 5.681 5.485 2.968 8.193 0.263 C 8.355 0.101 8.393 0.02 8.646 0.02 L 33.679 0.02 C 33.688 0.02 33.696 0.024 33.702 0.03 C 33.708 0.036 33.712 0.044 33.712 0.053 L 33.712 25.213 C 33.712 25.24 33.702 25.263 33.684 25.281 L 25.324 33.622 C 25.321 33.626 25.316 33.628 25.311 33.629 C 25.306 33.629 25.301 33.629 25.297 33.627 C 25.288 33.623 25.282 33.615 25.282 33.605 L 25.282 16.891 C 25.282 16.857 25.296 16.825 25.32 16.801 C 28.088 14.039 30.853 11.275 33.616 8.508 C 33.631 8.493 33.638 8.482 33.639 8.473 C 33.64 8.453 33.631 8.443 33.612 8.443 L 25.328 8.443 C 25.303 8.443 25.283 8.423 25.282 8.398 C 25.282 5.632 25.282 2.879 25.285 0.141 C 25.285 0.12 25.279 0.105 25.265 0.098 Z M 46.86 42.024 C 46.86 42.034 46.852 42.042 46.842 42.043 L 42.145 42.043 C 42.135 42.042 42.127 42.034 42.127 42.024 L 42.127 16.848 C 42.127 16.843 42.129 16.838 42.132 16.834 C 42.136 16.831 42.14 16.829 42.145 16.829 L 46.842 16.829 L 46.849 16.83 L 46.855 16.834 C 46.859 16.838 46.861 16.843 46.861 16.848 L 46.861 42.024 Z M 120.878 27.388 C 120.867 27.388 120.857 27.392 120.849 27.4 C 120.841 27.408 120.837 27.419 120.837 27.43 L 120.838 36.956 C 120.838 38.07 121.318 38.927 122.557 38.838 C 123.022 38.804 123.418 38.608 123.821 38.378 C 124.309 38.098 124.6 38.325 124.864 38.761 C 125.26 39.413 125.654 40.06 126.046 40.701 C 126.053 40.711 126.056 40.724 126.053 40.737 C 126.051 40.75 126.044 40.761 126.034 40.769 C 124.602 41.909 122.85 42.38 121.019 42.313 C 118.778 42.231 117.092 41.05 116.651 38.775 C 116.573 38.399 116.531 38.017 116.524 37.634 L 116.509 27.434 C 116.509 27.428 116.508 27.422 116.505 27.416 C 116.503 27.41 116.499 27.405 116.495 27.4 C 116.486 27.391 116.474 27.386 116.461 27.386 C 116.076 27.39 115.694 27.39 115.316 27.388 C 114.659 27.385 114.12 27.467 113.906 26.864 C 113.859 26.734 113.838 26.514 113.841 26.2 C 113.845 25.731 113.846 25.261 113.843 24.792 C 113.843 24.782 113.846 24.772 113.853 24.765 C 113.859 24.757 113.868 24.752 113.878 24.751 L 116.692 24.291 C 116.711 24.289 116.726 24.274 116.728 24.255 L 117.623 19.45 C 117.671 19.192 118.096 18.94 118.308 18.812 C 118.483 18.708 118.648 18.678 118.87 18.678 C 119.613 18.676 120.348 18.676 121.075 18.679 C 121.099 18.679 121.111 18.691 121.11 18.715 L 120.845 24.273 C 120.845 24.277 120.845 24.281 120.847 24.285 C 120.848 24.289 120.85 24.292 120.853 24.295 C 120.859 24.301 120.867 24.305 120.876 24.305 L 125.594 24.305 C 125.616 24.305 125.627 24.317 125.627 24.338 L 125.627 27.358 C 125.627 27.366 125.623 27.374 125.618 27.38 C 125.612 27.386 125.604 27.389 125.595 27.389 L 120.878 27.389 Z M 82.577 40.615 L 82.574 47.85 C 82.574 47.861 82.57 47.871 82.562 47.879 C 82.554 47.887 82.543 47.891 82.532 47.89 L 78.29 47.89 C 78.263 47.89 78.249 47.876 78.249 47.849 L 78.249 24.169 C 78.249 24.152 78.257 24.144 78.274 24.144 L 80.878 24.139 C 81.309 24.139 81.627 24.287 81.831 24.584 C 81.924 24.72 82.011 24.984 82.093 25.375 L 82.333 26.518 C 82.335 26.524 82.338 26.529 82.342 26.533 C 82.346 26.538 82.352 26.541 82.357 26.543 C 82.369 26.546 82.382 26.542 82.39 26.533 C 83.407 25.389 84.781 24.396 86.266 24.036 C 90.856 22.922 93.812 25.959 94.532 30.186 C 94.747 31.452 94.802 32.746 94.716 34.026 C 94.406 38.643 91.403 42.699 86.326 42.28 C 84.876 42.16 83.636 41.602 82.606 40.603 C 82.586 40.584 82.576 40.588 82.576 40.615 Z M 83.83 28.14 C 83.393 28.493 82.99 28.887 82.628 29.317 C 82.593 29.357 82.575 29.409 82.575 29.462 C 82.577 32.064 82.576 34.677 82.573 37.299 C 82.573 37.361 82.603 37.422 82.64 37.467 C 83.163 38.126 83.882 38.601 84.693 38.823 C 85.498 39.049 86.261 39.085 86.983 38.93 C 89.895 38.302 90.365 34.916 90.28 32.468 C 90.217 30.672 89.869 28.018 87.802 27.396 C 86.486 27.001 84.908 27.286 83.83 28.14 Z M 54.195 26.218 C 55.027 25.233 56.183 24.394 57.442 24.065 C 58.059 23.906 58.696 23.844 59.332 23.879 C 61.343 23.979 62.722 25.329 63.372 27.139 C 63.373 27.144 63.376 27.149 63.38 27.152 C 63.388 27.158 63.4 27.159 63.409 27.153 C 63.413 27.151 63.417 27.147 63.419 27.143 C 64.699 24.554 67.479 23.578 70.229 23.938 C 72.566 24.245 74.114 25.484 74.872 27.654 C 75.205 28.608 75.306 29.622 75.308 30.708 C 75.313 34.474 75.313 38.24 75.308 42.005 C 75.308 42.015 75.305 42.024 75.298 42.031 C 75.291 42.038 75.282 42.041 75.272 42.041 L 71.027 42.045 C 70.999 42.045 70.986 42.032 70.986 42.005 L 70.986 30.366 C 70.986 30.048 70.934 29.68 70.831 29.261 C 70.479 27.826 69.341 27.187 67.93 27.237 C 66.093 27.302 64.905 28.688 64.905 30.475 L 64.905 42.01 C 64.905 42.018 64.901 42.026 64.895 42.032 C 64.889 42.038 64.882 42.041 64.874 42.041 L 60.582 42.048 C 60.566 42.048 60.553 42.035 60.553 42.019 L 60.553 30.335 C 60.546 29.93 60.491 29.527 60.389 29.135 C 60.121 28.043 59.342 27.422 58.249 27.26 C 56.745 27.037 55.441 27.806 54.476 28.936 C 54.466 28.948 54.46 28.964 54.46 28.98 L 54.46 41.991 C 54.46 42.011 54.448 42.029 54.43 42.037 C 54.424 42.04 54.417 42.041 54.41 42.041 L 50.164 42.041 C 50.153 42.041 50.142 42.037 50.134 42.029 C 50.126 42.021 50.122 42.01 50.122 41.999 L 50.122 24.183 C 50.122 24.173 50.125 24.163 50.132 24.156 C 50.14 24.149 50.15 24.145 50.16 24.145 C 51.05 24.142 51.931 24.143 52.806 24.146 C 53.203 24.147 53.5 24.287 53.697 24.566 C 53.794 24.703 53.883 24.962 53.964 25.343 C 54.026 25.631 54.086 25.919 54.146 26.207 C 54.148 26.217 54.156 26.225 54.166 26.228 C 54.177 26.231 54.188 26.227 54.195 26.219 Z M 96.597 31.378 C 97.144 26.823 100.745 23.698 105.39 23.873 C 106.555 23.917 107.603 24.135 108.536 24.526 C 111.774 25.884 113.153 29.242 112.915 32.578 C 112.875 33.146 112.687 33.64 112.026 33.641 C 108.3 33.644 104.573 33.646 100.847 33.647 C 100.843 33.648 100.84 33.651 100.838 33.654 C 100.835 33.657 100.833 33.66 100.832 33.664 C 100.831 33.667 100.83 33.671 100.831 33.674 C 101.008 36.267 102.127 38.569 105.001 38.917 C 106.184 39.068 107.386 38.877 108.465 38.367 C 108.955 38.137 109.435 37.887 109.905 37.616 C 110.375 37.344 111.088 37.264 111.454 37.729 C 111.88 38.268 112.303 38.808 112.725 39.349 C 112.731 39.357 112.734 39.366 112.734 39.376 C 112.733 39.385 112.73 39.394 112.724 39.402 C 110.884 41.546 108.03 42.313 105.297 42.306 C 102.563 42.299 99.991 41.246 98.359 39.033 C 96.777 36.89 96.284 33.98 96.597 31.378 Z M 101.318 29.5 C 101.127 29.983 100.996 30.488 100.926 31.003 C 100.925 31.007 100.925 31.012 100.927 31.016 C 100.928 31.02 100.93 31.025 100.933 31.028 C 100.936 31.031 100.94 31.034 100.944 31.035 C 100.948 31.037 100.952 31.038 100.956 31.038 L 108.996 31.038 C 109.003 31.038 109.009 31.037 109.015 31.034 C 109.027 31.029 109.037 31.019 109.042 31.007 C 109.044 31.001 109.045 30.995 109.045 30.989 C 109.027 28.937 107.918 27.225 105.767 26.999 C 103.782 26.791 102.071 27.583 101.318 29.499 Z M 150.38 24.101 C 153.233 23.471 156.238 24.053 158.428 26.035 C 158.458 26.064 158.463 26.095 158.441 26.131 C 158.096 26.679 157.754 27.214 157.414 27.737 C 157.078 28.253 156.479 28.237 155.98 27.992 C 155.649 27.83 155.316 27.673 154.981 27.522 C 153.942 27.039 152.777 26.895 151.652 27.11 C 150.655 27.297 149.783 28.076 149.914 29.153 C 150.045 30.24 151.533 30.779 152.405 31.053 C 153.734 31.472 154.73 31.769 155.867 32.297 C 157.244 32.935 158.373 34.022 158.598 35.553 C 158.691 36.201 158.678 36.86 158.56 37.504 C 157.936 40.812 155.115 42.176 152.003 42.315 C 149.626 42.421 147.112 41.713 145.278 40.15 C 145.271 40.144 145.267 40.136 145.265 40.127 C 145.264 40.118 145.266 40.108 145.27 40.1 C 145.618 39.52 145.972 38.94 146.331 38.363 C 146.465 38.148 146.687 37.996 146.998 37.905 C 147.481 37.763 147.887 37.932 148.342 38.217 C 149.109 38.697 149.982 39.13 150.872 39.246 C 152.156 39.412 154.124 39.224 154.53 37.681 C 154.746 36.859 154.519 36.224 153.849 35.776 C 153.134 35.299 152.461 35.086 151.473 34.792 C 150.523 34.514 149.591 34.177 148.682 33.783 C 146.606 32.874 145.578 31.013 145.811 28.785 C 146.076 26.257 147.999 24.627 150.38 24.101 Z M 139.41 39.89 C 139.409 39.885 139.407 39.881 139.404 39.877 C 139.4 39.873 139.396 39.871 139.391 39.869 C 139.386 39.868 139.381 39.868 139.376 39.869 C 139.371 39.87 139.367 39.873 139.363 39.876 C 138.242 41.009 136.817 41.942 135.236 42.206 C 134.149 42.389 132.973 42.376 131.919 42.073 C 129.044 41.247 127.809 38.474 127.804 35.693 C 127.798 31.851 127.794 28.016 127.792 24.192 C 127.792 24.159 127.809 24.143 127.841 24.143 L 132.087 24.143 C 132.109 24.143 132.12 24.153 132.12 24.175 L 132.121 35.693 C 132.121 36.086 132.188 36.513 132.322 36.973 C 132.707 38.303 133.7 38.904 135.019 38.945 C 136.604 38.993 137.978 38.208 139.068 37.117 C 139.079 37.106 139.087 37.094 139.093 37.08 C 139.098 37.066 139.101 37.052 139.101 37.037 L 139.101 24.177 C 139.101 24.154 139.113 24.142 139.136 24.142 L 143.39 24.143 C 143.414 24.143 143.427 24.155 143.427 24.18 L 143.427 42.004 C 143.427 42.014 143.423 42.023 143.417 42.03 C 143.41 42.037 143.401 42.04 143.391 42.04 C 142.619 42.04 141.847 42.041 141.077 42.044 C 140.678 42.046 140.405 42.014 140.257 41.95 C 139.836 41.766 139.73 41.43 139.633 40.964 C 139.559 40.604 139.485 40.246 139.41 39.891 Z" fill="rgb(255,255,255)"></path></g></svg>