<svg xmlns="http://www.w3.org/2000/svg" xmlns:xlink="http://www.w3.org/1999/xlink" viewBox="0 0 173 38" overflow="visible"><g><path d="M 65.458 13.653 L 65.458 21.903 C 65.458 22.875 65.392 23.823 64.559 23.823 C 64.098 23.823 63.822 23.608 63.49 23.303 L 63.321 23.144 L 62.442 24.364 L 62.584 24.473 C 63.212 25.007 63.882 25.279 64.526 25.279 C 65.302 25.279 65.999 24.948 66.444 24.364 C 66.995 23.638 66.995 22.716 66.995 21.903 L 66.995 13.653 Z M 82.594 13.47 C 79.558 13.47 77.086 15.944 77.086 18.975 C 77.086 21.97 79.555 24.407 82.594 24.407 C 83.706 24.407 84.824 24.036 85.753 23.372 L 85.843 23.316 L 85.843 21.31 L 85.488 21.658 C 84.672 22.48 83.603 22.955 82.551 22.955 C 80.424 22.955 78.622 21.114 78.622 18.945 C 78.622 16.77 80.414 14.929 82.528 14.929 C 83.616 14.929 84.695 15.404 85.485 16.216 L 85.84 16.587 L 85.84 14.581 L 85.753 14.512 C 84.821 13.809 83.789 13.47 82.594 13.47 Z M 70.545 21.96 L 74.624 21.96 C 74.69 22.116 75.234 23.422 75.569 24.225 L 77.258 24.225 L 72.646 13.467 L 67.901 24.225 L 69.583 24.225 C 69.915 23.425 70.479 22.116 70.545 21.96 Z M 72.606 17.151 C 72.881 17.808 73.824 20.069 74.006 20.504 L 71.176 20.504 C 71.362 20.066 72.331 17.795 72.606 17.151 Z M 94.009 24.228 C 94.009 24.228 90.26 20.03 88.972 18.597 C 90.389 17.174 93.893 13.653 93.893 13.653 L 96.004 13.653 C 96.004 13.653 91.268 18.335 91.006 18.597 C 91.252 18.869 96.133 24.228 96.133 24.228 Z M 88.972 13.653 L 87.432 13.653 L 87.432 24.228 L 88.972 24.228 Z M 123.493 18.942 C 123.493 21.96 121.021 24.404 117.985 24.404 C 114.945 24.404 112.473 21.96 112.473 18.942 C 112.473 15.931 114.945 13.47 117.985 13.47 C 121.021 13.47 123.493 15.931 123.493 18.942 Z M 121.96 18.942 C 121.96 16.73 120.178 14.926 117.988 14.926 C 115.801 14.926 114.016 16.733 114.016 18.942 C 114.016 21.147 115.798 22.951 117.988 22.951 C 120.178 22.955 121.96 21.151 121.96 18.942 Z M 150.379 18.942 C 150.379 21.96 147.91 24.404 144.867 24.404 C 141.831 24.404 139.355 21.96 139.355 18.942 C 139.355 15.931 141.827 13.47 144.867 13.47 C 147.913 13.47 150.379 15.931 150.379 18.942 Z M 148.839 18.942 C 148.839 16.73 147.057 14.926 144.87 14.926 C 142.683 14.926 140.905 16.733 140.905 18.942 C 140.905 21.147 142.683 22.951 144.87 22.951 C 147.057 22.955 148.839 21.151 148.839 18.942 Z M 132.678 13.653 L 132.678 15.108 L 135.141 15.108 L 135.141 24.228 L 136.677 24.228 L 136.677 15.108 L 139.169 15.108 L 139.169 13.653 Z M 158.714 13.653 L 158.714 20.637 C 157.208 19.055 153.302 14.969 151.869 13.47 L 151.869 24.228 L 153.408 24.228 L 153.408 17.254 C 154.895 18.799 158.804 22.888 160.261 24.407 L 160.261 13.653 Z M 109.636 13.47 C 109.636 13.47 106.789 19.124 105.823 21.015 C 104.854 19.124 102.01 13.47 102.01 13.47 L 99.8 24.228 L 101.356 24.228 L 102.574 18.265 C 103.58 20.162 105.468 23.74 105.82 24.404 C 106.175 23.737 108.063 20.162 109.065 18.265 L 110.286 24.228 L 111.842 24.228 Z M 129.549 19.642 C 130.767 19.237 131.65 18.083 131.65 16.73 C 131.65 15.029 130.269 13.649 128.564 13.649 L 125.325 13.649 L 125.325 24.225 L 126.868 24.225 L 126.868 15.105 L 128.484 15.105 C 129.383 15.105 130.11 15.828 130.11 16.73 C 130.11 17.635 129.383 18.355 128.484 18.355 L 126.868 18.355 C 127.08 18.67 130.913 24.225 130.913 24.225 L 132.801 24.225 C 132.798 24.228 130.608 21.151 129.549 19.642 Z M 35.374 21.151 C 35.374 22.049 34.64 22.795 33.728 22.795 C 32.812 22.795 32.075 22.049 32.075 21.151 C 32.075 20.245 32.812 19.499 33.728 19.499 C 34.64 19.496 35.374 20.242 35.374 21.151 Z M 33.728 13.653 C 30.804 13.653 28.438 16.02 28.438 18.942 C 28.438 21.857 30.804 24.215 33.728 24.215 C 36.651 24.215 39.017 21.857 39.017 18.942 C 39.017 16.02 36.648 13.653 33.728 13.653 Z M 40.069 18.942 C 40.069 22.431 37.232 25.266 33.728 25.266 C 30.227 25.266 27.383 22.431 27.383 18.942 C 27.383 15.433 30.227 12.601 33.728 12.601 C 37.232 12.601 40.069 15.433 40.069 18.942 Z M 53.791 18.942 C 53.791 21.857 51.425 24.215 48.505 24.215 C 45.584 24.215 43.218 21.857 43.218 18.942 C 43.218 16.02 45.581 13.653 48.505 13.653 C 51.428 13.653 53.791 16.02 53.791 18.942 Z M 48.505 12.601 C 45.007 12.601 42.167 15.433 42.167 18.942 C 42.167 22.431 45.007 25.266 48.505 25.266 C 52.006 25.266 54.843 22.431 54.843 18.942 C 54.846 15.433 52.009 12.601 48.505 12.601 Z M 48.505 21.744 C 47.542 21.744 46.719 21.167 46.344 20.348 L 45.223 20.348 C 45.644 21.767 46.952 22.795 48.505 22.795 C 50.058 22.795 51.362 21.767 51.783 20.348 L 50.668 20.348 C 50.297 21.167 49.464 21.744 48.505 21.744 Z M 24.234 18.942 C 24.234 21.857 21.868 24.215 18.945 24.215 C 16.028 24.215 13.665 21.857 13.665 18.942 C 13.665 16.02 16.028 13.653 18.945 13.653 C 21.868 13.653 24.234 16.02 24.234 18.942 Z M 18.945 12.601 C 15.447 12.601 12.61 15.433 12.61 18.942 C 12.61 22.431 15.447 25.266 18.945 25.266 C 22.445 25.266 25.286 22.431 25.286 18.942 C 25.286 15.433 22.449 12.601 18.945 12.601 Z M 21.397 20.613 L 16.496 20.613 L 16.496 21.674 L 21.397 21.674 Z" fill="rgb(255, 255, 255)"></path><path d="M 171.945 6.344 C 171.945 9.259 169.579 11.617 166.659 11.617 C 163.738 11.617 161.372 9.259 161.372 6.344 C 161.372 3.422 163.735 1.055 166.659 1.055 C 169.582 1.051 171.945 3.422 171.945 6.344 Z M 166.659 0.003 C 163.161 0.003 160.321 2.835 160.321 6.344 C 160.321 9.832 163.161 12.668 166.659 12.668 C 170.159 12.668 172.997 9.832 172.997 6.344 C 173 2.835 170.163 0.003 166.659 0.003 Z M 166.659 9.143 C 165.696 9.143 164.873 8.566 164.498 7.747 L 163.377 7.747 C 163.798 9.166 165.106 10.194 166.659 10.194 C 168.212 10.194 169.516 9.166 169.937 7.747 L 168.822 7.747 C 168.451 8.566 167.618 9.143 166.659 9.143 Z M 171.948 31.669 C 171.948 34.584 169.582 36.942 166.662 36.942 C 163.742 36.942 161.376 34.584 161.376 31.669 C 161.376 28.748 163.738 26.38 166.662 26.38 C 169.582 26.377 171.948 28.748 171.948 31.669 Z M 166.662 25.326 C 163.164 25.326 160.324 28.158 160.324 31.666 C 160.324 35.155 163.164 37.99 166.662 37.99 C 170.163 37.99 173 35.155 173 31.666 C 173 28.161 170.163 25.326 166.662 25.326 Z M 166.662 34.468 C 165.7 34.468 164.877 33.891 164.502 33.072 L 163.38 33.072 C 163.801 34.491 165.109 35.52 166.662 35.52 C 168.215 35.52 169.519 34.491 169.94 33.072 L 168.825 33.072 C 168.454 33.891 167.621 34.468 166.662 34.468 Z M 11.628 6.341 C 11.628 9.255 9.262 11.613 6.341 11.613 C 3.421 11.613 1.055 9.255 1.055 6.341 C 1.055 3.419 3.418 1.051 6.341 1.051 C 9.262 1.051 11.628 3.419 11.628 6.341 Z M 6.341 0 C 2.844 0 0.003 2.832 0.003 6.341 C 0.003 9.829 2.844 12.664 6.341 12.664 C 9.842 12.664 12.679 9.829 12.679 6.341 C 12.679 2.832 9.842 0 6.341 0 Z M 6.341 9.143 C 5.379 9.143 4.556 8.566 4.181 7.747 L 3.06 7.747 C 3.481 9.166 4.788 10.194 6.341 10.194 C 7.894 10.194 9.199 9.166 9.62 7.747 L 8.505 7.747 C 8.133 8.566 7.3 9.143 6.341 9.143 Z M 11.624 31.676 C 11.624 34.591 9.258 36.949 6.338 36.949 C 3.418 36.949 1.052 34.591 1.052 31.676 C 1.052 28.755 3.415 26.387 6.338 26.387 C 9.258 26.387 11.624 28.755 11.624 31.676 Z M 6.338 25.336 C 2.841 25.336 0 28.168 0 31.676 C 0 35.165 2.841 38 6.338 38 C 9.839 38 12.676 35.165 12.676 31.676 C 12.676 28.168 9.839 25.336 6.338 25.336 Z M 6.338 34.475 C 5.376 34.475 4.553 33.898 4.178 33.079 L 3.056 33.079 C 3.478 34.498 4.785 35.526 6.338 35.526 C 7.891 35.526 9.195 34.498 9.617 33.079 L 8.502 33.079 C 8.116 33.927 7.271 34.473 6.338 34.475 Z" fill="transparent"></path></g></svg>