<svg xmlns="http://www.w3.org/2000/svg" xmlns:xlink="http://www.w3.org/1999/xlink" viewBox="0 0 108.697 24.513" overflow="visible"><path d="M 41.492 0.196 C 41.12 0.345 41.008 2.725 41.008 10.312 C 41.008 19.015 41.083 20.391 41.678 21.507 C 42.719 23.553 44.021 24.296 46.959 24.445 C 50.195 24.631 51.087 24.408 52.686 22.995 C 54.434 21.47 54.844 19.982 54.844 15.333 C 54.806 11.949 54.695 11.13 53.951 9.68 C 52.463 6.742 48.558 5.477 45.285 6.816 L 44.021 7.374 L 43.909 3.766 C 43.798 0.233 43.798 0.159 42.868 0.084 C 42.347 0.047 41.715 0.122 41.492 0.196 Z M 49.711 9.271 C 50.976 9.717 51.645 11.205 51.943 14.106 C 52.277 17.416 51.757 20.019 50.492 21.061 C 49.079 22.288 46.141 22.251 44.913 20.986 C 44.021 20.131 43.983 19.871 43.983 15.445 L 43.983 10.833 L 45.136 9.866 C 46.327 8.825 48.037 8.601 49.711 9.271 Z M 58.86 0.233 C 58.079 0.531 57.744 1.126 57.744 2.204 C 57.744 3.432 58.377 4.064 59.604 4.064 C 60.125 4.064 60.757 3.878 61.017 3.618 C 61.761 2.874 61.538 1.2 60.645 0.568 C 59.753 -0.064 59.716 -0.064 58.86 0.233 Z M 65.443 0.233 C 65.294 0.345 65.183 5.403 65.183 11.391 L 65.183 22.325 L 66.113 23.255 C 66.931 24.036 67.34 24.185 69.014 24.073 C 70.873 23.962 70.948 23.924 70.948 22.846 C 70.948 21.842 70.799 21.693 69.646 21.544 L 68.344 21.358 L 68.233 10.944 C 68.158 3.209 68.047 0.494 67.675 0.27 C 67.117 -0.064 65.778 -0.102 65.443 0.233 Z M 73.849 0.345 C 73.179 0.605 72.993 0.977 72.993 1.944 C 72.993 3.432 73.551 4.064 74.927 4.064 C 76.638 4.064 77.307 2.056 75.969 0.717 C 75.15 -0.102 75.039 -0.139 73.849 0.345 Z M 96.908 0.233 C 96.61 0.456 96.498 3.729 96.536 12.246 L 96.61 23.962 L 98.023 24.073 C 99.623 24.222 99.511 24.482 99.548 19.871 C 99.585 16.635 99.623 16.523 100.441 16.523 C 101.11 16.523 101.78 17.304 103.602 20.242 C 105.796 23.776 105.982 23.962 107.321 24.073 C 108.363 24.148 108.697 24.036 108.697 23.627 C 108.697 23.292 107.656 21.433 106.354 19.424 C 105.053 17.416 103.9 15.593 103.751 15.37 C 103.639 15.147 104.681 13.25 106.094 11.13 C 107.544 9.048 108.697 7.188 108.697 7.039 C 108.697 6.444 106.354 6.221 105.908 6.742 C 105.871 6.816 104.792 8.341 103.491 10.126 C 101.668 12.73 101.036 13.399 100.404 13.288 C 99.585 13.176 99.585 13.027 99.548 6.667 L 99.548 0.159 L 98.432 0.047 C 97.837 0.01 97.168 0.084 96.908 0.233 Z M 1.845 1.535 C 1.399 1.907 1.176 2.948 1.027 5.924 C 0.878 8.081 0.58 12.841 0.32 16.523 C 0.06 20.205 -0.052 23.441 0.023 23.664 C 0.097 23.924 0.729 24.148 1.399 24.148 C 2.924 24.148 2.924 24.073 3.296 17.453 C 3.407 14.701 3.593 12.172 3.667 11.874 C 3.705 11.577 3.779 10.163 3.779 8.713 C 3.816 7.262 3.965 6.296 4.151 6.481 C 4.3 6.705 5.527 9.754 6.792 13.325 C 8.093 16.858 9.395 19.982 9.693 20.28 C 10.288 20.875 11.217 20.949 12.482 20.466 C 13.263 20.168 13.784 19.015 15.941 13.176 C 18.879 5.217 18.805 5.18 19.214 14.031 C 19.362 17.081 19.548 19.908 19.623 20.28 C 19.697 20.652 19.772 21.693 19.772 22.548 L 19.809 24.148 L 22.896 24.148 L 22.635 21.061 C 22.524 19.387 22.263 14.998 22.04 11.316 C 21.706 5.849 21.445 2.093 21.334 1.572 C 21.296 1.535 20.701 1.386 19.957 1.237 C 17.466 0.791 17.28 1.051 14.23 9.42 C 12.705 13.622 11.366 16.97 11.217 16.784 C 11.106 16.635 9.767 13.139 8.279 9.011 C 6.085 2.948 5.415 1.498 4.783 1.312 C 3.519 0.977 2.514 1.051 1.845 1.535 Z M 28.14 6.816 C 25.611 7.932 24.421 11.354 24.718 16.709 C 24.83 18.569 25.202 20.428 25.573 21.172 C 27.768 25.784 35.95 25.561 37.921 20.875 C 38.665 19.09 38.963 13.92 38.442 11.54 C 37.921 9.048 36.88 7.56 35.169 6.853 C 33.533 6.147 29.702 6.147 28.14 6.816 Z M 34.5 9.829 C 35.392 10.684 35.429 10.944 35.429 15.11 C 35.429 19.982 35.169 20.726 33.235 21.544 C 31.747 22.139 29.813 21.767 28.735 20.614 C 27.173 18.978 27.21 11.837 28.772 9.866 C 29.441 9.048 29.813 8.899 31.561 8.899 C 33.235 8.899 33.756 9.048 34.5 9.829 Z M 57.112 6.556 C 56.852 6.667 56.629 7.225 56.629 7.858 C 56.629 8.639 56.852 9.011 57.373 9.159 C 58.079 9.345 58.116 9.68 58.116 16.151 C 58.116 19.908 58.228 23.218 58.34 23.553 C 58.488 23.924 59.009 24.148 59.827 24.148 L 61.092 24.148 L 61.092 16.04 C 61.092 10.126 60.98 7.746 60.645 7.337 C 60.162 6.742 57.968 6.258 57.112 6.556 Z M 72.361 6.556 C 71.022 6.816 71.32 9.271 72.658 9.271 C 73.291 9.271 73.365 9.717 73.439 16.598 L 73.551 23.962 L 74.964 24.073 L 76.34 24.185 L 76.34 16.003 C 76.34 9.085 76.266 7.746 75.745 7.262 C 75.448 6.928 74.964 6.667 74.667 6.667 C 74.406 6.667 73.96 6.593 73.663 6.519 C 73.402 6.444 72.807 6.481 72.361 6.556 Z M 84.076 7.151 C 82.403 8.006 82.291 8.006 82.291 7.374 C 82.291 6.258 80.208 6.407 79.911 7.486 C 79.613 8.601 79.613 22.809 79.911 23.553 C 80.06 23.924 80.58 24.148 81.399 24.148 L 82.663 24.148 L 82.7 18.383 C 82.737 15.222 82.775 12.507 82.812 12.321 C 83.184 10.721 83.556 10.089 84.56 9.494 C 86.159 8.564 88.502 8.862 89.618 10.201 C 90.436 11.13 90.473 11.465 90.473 17.676 L 90.473 24.185 L 91.887 24.073 L 93.263 23.962 L 93.263 17.044 C 93.263 9.42 93.151 8.899 91.068 7.486 C 89.097 6.147 86.271 5.998 84.076 7.151 Z" fill="rgb(255, 255, 255)"></path></svg>