<svg xmlns="http://www.w3.org/2000/svg" xmlns:xlink="http://www.w3.org/1999/xlink" viewBox="0 0 153 37" overflow="visible"><g><path d="M 131.69 0 C 123.744 0 117.2 6.475 117.2 14.598 C 117.2 22.604 123.627 29.197 131.69 29.197 C 139.637 29.197 146.181 22.722 146.181 14.598 C 146.181 6.475 139.637 0 131.69 0 M 142.909 6.475 C 142.208 6.946 141.39 7.417 140.572 7.888 C 140.104 6.946 139.52 6.004 138.819 5.18 C 139.403 4.827 139.988 4.356 140.455 4.003 C 141.507 4.591 142.325 5.533 142.909 6.475 M 136.832 1.648 C 138.001 2.119 139.053 2.708 140.104 3.532 C 139.637 4.003 139.053 4.356 138.468 4.709 C 137.767 3.885 136.949 3.179 136.131 2.472 C 136.365 2.119 136.599 1.884 136.832 1.648 M 138.001 4.945 C 137.183 5.415 136.365 5.651 135.547 6.004 C 135.196 5.18 134.846 4.356 134.378 3.65 C 134.846 3.414 135.313 3.179 135.664 2.825 C 136.482 3.414 137.3 4.12 138.001 4.945 M 136.248 1.413 C 136.014 1.648 135.781 1.884 135.664 2.119 C 134.846 1.648 134.144 1.177 133.21 0.824 C 134.261 0.824 135.313 1.06 136.248 1.413 M 135.196 2.472 C 134.846 2.708 134.495 2.943 134.144 3.061 C 133.677 2.355 133.21 1.766 132.742 1.06 C 133.56 1.413 134.378 1.884 135.196 2.472 M 131.924 1.177 C 132.508 1.766 132.976 2.472 133.443 3.296 C 132.976 3.414 132.508 3.532 131.924 3.532 Z M 131.924 4.12 C 132.508 4.12 133.21 4.003 133.794 3.767 C 134.261 4.474 134.612 5.298 134.962 6.122 C 134.028 6.357 132.976 6.475 131.924 6.593 Z M 131.34 1.177 L 131.34 3.532 C 130.872 3.532 130.405 3.414 129.821 3.296 C 130.405 2.59 130.872 1.884 131.34 1.177 M 129.353 3.061 C 129.003 2.943 128.535 2.708 128.301 2.472 C 129.119 2.001 129.937 1.53 130.755 1.177 C 130.171 1.766 129.704 2.355 129.353 3.061 M 130.171 0.706 C 129.353 1.06 128.535 1.53 127.717 2.001 C 127.483 1.766 127.25 1.53 127.133 1.295 C 128.068 1.06 129.119 0.824 130.171 0.706 M 140.104 25.665 C 138.235 24.605 138.118 23.075 138.235 22.604 C 138.351 22.015 138.702 22.251 138.936 22.251 C 140.221 22.251 141.507 21.897 143.143 20.132 C 145.013 18.248 145.597 14.01 142.675 11.302 C 139.637 8.359 136.365 8.83 134.261 11.537 C 133.794 12.126 132.742 12.479 131.924 12.479 C 130.522 12.479 131.457 13.539 131.457 13.774 C 131.457 14.01 131.223 14.127 131.106 14.127 C 130.639 14.01 130.872 14.716 130.872 14.834 C 130.872 14.951 130.639 15.187 130.639 15.187 C 130.054 15.187 130.171 15.658 130.288 15.893 C 130.288 16.011 130.288 16.246 130.054 16.364 C 129.821 16.482 129.704 16.953 129.704 17.306 C 129.704 17.895 130.288 18.366 131.223 19.072 C 132.158 19.778 132.275 20.485 132.275 20.956 C 132.275 21.427 132.392 22.251 132.508 22.722 C 132.742 23.31 132.742 24.487 131.457 24.487 C 129.821 24.605 127.016 25.782 126.782 25.9 C 125.847 26.253 124.679 26.371 123.744 26.136 C 123.276 25.782 122.809 25.429 122.341 24.958 C 122.108 24.37 122.458 23.663 122.809 23.192 C 123.393 23.781 124.094 23.663 124.562 23.663 C 125.029 23.663 127.133 23.31 127.483 23.192 C 127.834 23.075 127.951 23.075 128.068 23.192 C 128.886 23.546 130.054 23.546 130.522 22.015 C 130.989 20.367 129.937 20.838 129.704 20.956 C 129.587 21.073 129.353 20.956 129.47 20.838 C 129.704 20.485 129.353 20.485 129.236 20.485 C 128.769 20.485 128.185 20.956 128.068 21.073 C 127.834 21.191 127.717 21.191 127.6 21.191 C 127.016 20.838 125.263 21.309 124.679 20.367 C 124.679 20.132 124.211 16.246 123.977 15.54 C 123.977 15.422 123.861 15.187 124.094 14.951 C 124.562 14.245 125.73 14.951 126.432 14.951 C 127.25 14.951 127.366 14.598 127.6 14.363 C 127.834 14.127 127.951 14.245 128.068 14.127 C 128.185 14.01 128.068 13.892 128.068 13.774 C 128.068 13.656 128.185 13.774 128.301 13.656 C 128.418 13.539 128.301 13.303 128.301 13.186 C 128.535 12.832 129.003 13.068 128.769 12.361 C 128.652 11.891 128.886 11.42 129.119 11.184 C 129.47 10.713 130.989 8.594 128.418 6.357 C 125.964 4.238 123.393 4.474 121.757 6.24 C 120.121 8.006 120.939 10.596 121.056 11.302 C 121.173 12.008 120.705 12.597 120.121 12.832 C 119.654 13.068 118.602 13.774 117.901 14.363 C 118.018 8.712 121.407 3.767 126.548 1.766 C 126.782 2.001 127.016 2.355 127.25 2.59 C 126.665 3.061 125.38 4.12 125.38 4.12 C 125.38 4.12 125.497 4.12 125.73 4.238 C 125.847 4.238 126.081 4.356 126.081 4.356 C 126.081 4.356 127.133 3.414 127.717 3.061 C 128.068 3.414 128.535 3.65 129.003 3.885 C 128.769 4.356 128.068 5.533 128.068 5.533 C 128.068 5.533 128.185 5.651 128.301 5.651 C 128.418 5.769 128.535 5.769 128.535 5.769 C 128.535 5.769 129.236 4.474 129.47 4.003 C 130.054 4.238 130.639 4.356 131.223 4.356 L 131.223 6.711 C 130.872 6.711 130.054 6.711 129.704 6.593 L 129.47 6.593 L 129.587 6.828 C 129.704 6.946 129.704 7.064 129.821 7.181 L 131.223 7.181 L 131.223 11.537 L 131.807 11.537 L 131.807 10.478 C 132.742 10.478 133.443 10.36 134.261 10.242 L 135.079 9.536 L 134.612 9.536 C 133.677 9.654 132.859 9.771 132.158 9.771 L 131.807 9.771 L 131.807 7.064 C 132.859 7.064 134.028 6.946 135.079 6.593 L 135.897 9.065 L 136.482 8.83 L 135.664 6.357 C 136.599 6.122 137.417 5.651 138.235 5.298 C 138.936 6.122 139.52 7.064 139.988 8.006 C 139.52 8.241 138.819 8.476 138.819 8.476 C 139.403 8.594 139.871 8.712 139.871 8.712 C 139.871 8.712 140.104 8.594 140.221 8.594 C 140.221 8.712 140.338 8.947 140.338 8.947 L 141.156 9.301 L 141.039 9.065 C 141.039 9.065 140.806 8.476 140.689 8.359 C 141.507 8.006 142.325 7.535 143.143 6.946 C 144.662 9.183 145.363 11.891 145.363 14.598 C 145.597 19.072 143.377 23.075 140.104 25.665 M 115.914 3.885 L 115.68 4.12 C 114.862 4.827 112.876 6.828 113.226 9.065 L 113.226 9.183 L 113.343 9.654 L 113.577 9.418 C 114.745 8.359 115.68 6.475 116.031 4.356 L 116.148 3.767 Z M 111.941 7.652 L 111.824 7.888 C 111.707 8.241 111.473 9.065 111.356 10.007 C 111.123 11.42 111.24 13.539 112.408 15.069 L 112.525 15.305 L 112.642 15.54 L 112.876 14.598 C 113.109 12.95 112.759 9.536 112.174 8.006 L 111.941 7.535 Z M 110.538 13.539 L 110.538 13.774 C 110.422 15.187 110.538 18.837 113.46 20.838 L 113.811 21.073 L 113.811 20.602 C 113.811 19.19 112.174 15.069 111.006 13.656 L 110.655 13.186 Z M 111.006 20.014 L 111.006 20.249 C 111.473 22.368 113.343 25.665 116.381 26.724 L 116.849 26.842 L 116.732 26.371 C 116.148 24.841 113.226 21.191 111.356 20.014 L 111.006 19.778 Z M 117.2 7.064 L 116.849 7.181 C 114.629 8.594 113.577 10.242 113.577 12.361 L 113.577 12.832 L 113.927 12.597 C 115.096 11.537 116.732 8.947 117.083 7.535 L 117.2 6.946 Z M 115.797 11.537 L 115.68 11.773 C 115.096 12.361 113.226 14.363 113.343 16.835 C 113.343 17.188 113.46 17.659 113.577 18.012 L 113.694 18.366 L 113.927 18.012 C 114.862 16.717 116.031 13.421 115.914 11.891 L 115.914 11.42 Z M 115.914 15.893 L 115.797 16.129 C 114.862 17.541 114.395 18.954 114.395 20.367 C 114.395 21.309 114.745 22.251 115.33 23.192 L 115.563 23.546 L 115.68 23.192 C 116.031 22.368 116.381 19.896 116.381 17.895 C 116.381 17.188 116.265 16.6 116.148 16.246 L 116.031 15.776 Z M 116.966 20.485 L 116.849 20.72 C 116.615 21.662 116.381 22.486 116.498 23.428 C 116.498 25.312 117.433 26.842 119.069 27.902 L 119.303 28.019 L 119.42 27.666 L 119.42 27.313 C 119.42 25.782 118.251 21.78 117.316 20.602 L 117.083 20.249 Z M 113.811 26.607 L 113.927 26.842 C 115.096 28.843 117.2 31.551 121.056 30.845 L 121.407 30.845 L 121.173 30.609 C 120.472 29.55 115.797 26.842 114.161 26.607 L 113.694 26.489 Z M 119.537 31.787 L 118.952 31.904 L 119.537 32.14 C 121.991 33.199 125.029 33.435 126.899 32.846 C 127.6 32.611 127.951 32.258 128.418 31.787 C 131.573 32.14 134.495 34.73 136.248 36.849 L 136.365 36.967 L 136.482 36.967 C 136.715 36.849 136.949 36.613 137.066 36.496 L 137.183 36.378 L 137.066 36.26 C 135.313 33.906 132.508 32.493 132.392 32.375 C 129.821 31.198 125.38 30.256 119.537 31.787" fill="rgb(255, 255, 255)"></path><path d="M 119.666 25.227 L 119.666 25.463 C 120.017 27.817 120.952 30.878 124.925 30.525 L 125.159 30.525 L 125.042 30.289 C 124.808 29.23 121.185 26.169 119.9 25.345 L 119.549 25.109 Z M 147.245 3.683 L 147.362 4.272 C 147.713 6.391 148.648 8.274 149.816 9.334 L 150.05 9.569 L 150.167 9.098 L 150.167 8.981 C 150.518 6.744 148.531 4.742 147.713 4.036 L 147.479 3.801 Z M 151.336 7.45 L 151.102 7.921 C 150.518 9.452 150.284 12.866 150.401 14.514 L 150.634 15.456 L 150.751 15.338 L 150.868 15.103 C 152.154 13.572 152.154 11.571 151.92 10.04 C 151.803 8.981 151.569 8.274 151.453 7.921 L 151.336 7.686 Z M 152.855 13.337 L 152.504 13.808 C 151.336 15.338 149.7 19.341 149.7 20.754 L 149.7 21.224 L 150.05 20.989 C 152.972 19.105 153.089 15.456 152.972 13.925 L 152.972 13.69 Z M 152.387 19.812 L 151.92 20.047 C 150.05 21.224 147.129 24.874 146.544 26.404 L 146.427 26.875 L 146.895 26.758 C 149.933 25.816 151.92 22.402 152.271 20.283 L 152.271 20.047 Z M 146.194 6.862 L 146.311 7.45 C 146.778 8.981 148.18 11.571 149.466 12.63 L 149.816 12.866 L 149.816 12.395 C 149.933 10.276 148.882 8.628 146.661 7.215 L 146.427 7.097 Z M 147.479 11.453 L 147.479 11.924 C 147.362 13.454 148.648 16.868 149.466 18.046 L 149.7 18.399 L 149.816 18.046 C 149.933 17.575 150.05 17.222 150.05 16.868 C 150.167 14.396 148.297 12.395 147.713 11.806 L 147.596 11.688 Z M 147.362 15.691 L 147.245 16.162 C 147.129 16.515 147.012 17.104 147.012 17.81 C 147.012 19.812 147.245 22.284 147.713 23.108 L 147.83 23.461 L 148.064 23.108 C 148.648 22.284 148.998 21.342 148.998 20.283 C 148.998 18.988 148.531 17.457 147.596 16.044 L 147.479 15.809 Z M 146.311 20.283 L 146.077 20.636 C 145.142 21.813 143.973 25.816 143.973 27.346 L 143.973 27.699 L 144.09 28.053 L 144.324 27.935 C 145.96 26.875 146.778 25.345 146.895 23.461 C 146.895 22.637 146.778 21.695 146.544 20.754 L 146.427 20.518 Z M 149.7 26.404 L 149.232 26.522 C 147.596 26.758 142.922 29.465 142.22 30.525 L 141.987 30.76 L 142.337 30.76 C 146.194 31.467 148.297 28.759 149.466 26.758 L 149.583 26.522 Z M 131.119 32.409 C 131.002 32.409 128.197 33.939 126.444 36.294 L 126.327 36.411 L 126.444 36.529 C 126.561 36.647 126.912 36.882 127.028 37 L 127.145 37 L 127.262 36.882 C 129.015 34.763 131.937 32.055 135.092 31.82 C 135.559 32.291 136.027 32.644 136.611 32.88 C 138.364 33.468 141.519 33.233 143.973 32.173 L 144.558 31.938 L 143.973 31.82 C 138.013 30.289 133.573 31.231 131.119 32.409 M 143.74 24.992 L 143.389 25.227 C 142.104 26.051 138.598 29.112 138.247 30.172 L 138.13 30.407 L 138.364 30.407 C 142.22 30.76 143.155 27.699 143.623 25.345 L 143.623 25.109 Z M 45.109 1.446 L 50.017 1.446 L 50.017 5.92 L 45.109 5.92 Z M 45.576 11.1 L 49.666 11.1 L 49.666 32.997 L 45.576 32.997 Z M 14.608 11.1 L 18.698 11.1 L 18.698 32.997 L 14.725 32.997 L 14.725 29.819 L 14.608 29.819 C 12.972 32.526 10.167 33.704 7.129 33.704 C 2.571 33.704 0 30.172 0 25.816 L 0 11.1 L 4.09 11.1 L 4.09 24.05 C 4.09 27.817 4.908 30.643 8.881 30.643 C 10.518 30.643 12.855 29.819 13.673 27.464 C 14.491 25.463 14.491 22.873 14.491 22.284 L 14.491 11.1 Z M 26.878 14.278 C 28.397 11.571 31.319 10.393 33.539 10.393 C 35.058 10.393 41.72 10.747 41.72 17.81 L 41.72 32.88 L 37.629 32.88 L 37.629 19.105 C 37.629 15.456 36.11 13.572 32.604 13.572 C 32.604 13.572 30.384 13.454 28.631 15.22 C 28.047 15.809 26.878 16.751 26.878 21.107 L 26.878 32.997 L 22.788 32.997 L 22.788 11.1 L 26.878 11.1 Z M 66.845 18.046 C 66.611 15.338 65.326 13.454 62.404 13.454 C 58.548 13.454 57.028 16.868 57.028 21.931 C 57.028 26.993 58.548 30.407 62.404 30.407 C 65.092 30.407 66.728 28.641 66.962 25.463 L 71.052 25.463 C 70.701 30.407 67.078 33.35 62.287 33.35 C 55.392 33.35 52.588 28.406 52.588 22.049 C 52.588 15.691 55.743 10.393 62.638 10.393 C 67.195 10.393 70.584 13.337 70.818 18.046 Z M 77.129 22.755 C 76.778 26.522 78.414 30.525 82.504 30.525 C 85.659 30.525 87.296 29.23 87.763 26.051 L 92.087 26.051 C 91.386 30.996 87.646 33.468 82.504 33.468 C 75.609 33.468 72.805 28.524 72.805 22.166 C 72.805 15.809 75.96 10.511 82.855 10.511 C 89.282 10.629 92.321 14.749 92.321 20.754 L 92.321 22.755 Z M 88.114 19.929 C 88.23 16.28 86.594 13.454 82.621 13.454 C 79.232 13.454 77.245 16.398 77.245 19.929 Z M 96.995 32.762 L 96.995 13.925 L 93.255 13.925 L 93.255 11.1 L 96.995 11.1 L 96.995 6.391 C 97.112 1.682 100.735 0.387 103.773 0.387 C 104.708 0.387 105.76 0.622 106.695 0.857 L 106.695 4.272 C 105.993 4.272 105.292 4.154 104.591 4.154 C 102.254 4.154 100.968 4.742 101.085 7.097 L 101.085 11.1 L 106.11 11.1 L 106.11 13.925 L 101.085 13.925 L 101.085 32.762 Z" fill="rgb(255, 255, 255)"></path></g></svg>